<svg width="29" height="29" viewBox="0 0 29 29" fill="none" xmlns="http://www.w3.org/2000/svg">
<path d="M5.83895 7.38391H4.32061C3.51523 7.38391 2.74284 7.70385 2.17336 8.27333C1.60387 8.84282 1.28394 9.61521 1.28394 10.4206V24.0856C1.28394 24.891 1.60387 25.6634 2.17336 26.2329C2.74284 26.8024 3.51523 27.1223 4.32061 27.1223H17.9856C18.791 27.1223 19.5634 26.8024 20.1329 26.2329C20.7024 25.6634 21.0223 24.891 21.0223 24.0856V22.5673" stroke="white" stroke-width="2" stroke-linecap="round" stroke-linejoin="round"/>
<path d="M19.5041 4.34726L24.0591 8.90227M26.162 6.75383C26.76 6.15583 27.0959 5.34478 27.0959 4.49909C27.0959 3.65341 26.76 2.84236 26.162 2.24436C25.564 1.64637 24.753 1.31042 23.9073 1.31042C23.0616 1.31042 22.2505 1.64637 21.6525 2.24436L8.87573 14.9756V19.5306H13.4307L26.162 6.75383Z" stroke="white" stroke-width="2" stroke-linecap="round" stroke-linejoin="round"/>
</svg>
