<?xml version="1.0" encoding="utf-8"?>
<!-- Generator: Adobe Illustrator 24.0.1, SVG Export Plug-In . SVG Version: 6.00 Build 0)  -->
<svg version="1.1" id="Layer_1" xmlns="http://www.w3.org/2000/svg" xmlns:xlink="http://www.w3.org/1999/xlink" x="0px" y="0px"
	 viewBox="0 0 100 100" style="enable-background:new 0 0 100 100;" xml:space="preserve">
<style type="text/css">
	.st0{fill:#8D1B5D;}
	.st1{fill:#CE3A67;}
	.st2{fill:#583782;}
	.st3{fill:#1B1105;}
	.st4{fill:#FC6B73;}
	.st5{fill:#4A18B7;}
	.st6{fill:#3C0145;}
	.st7{fill:#9F7EDB;}
	.st8{fill:#970220;}
	.st9{fill:#601515;}
	.st10{fill:#B50E2D;}
	.st11{fill:#1E0E01;}
	.st12{fill:#8E5CBC;}
	.st13{fill:#FE4465;}
	.st14{fill:#463177;}
	.st15{fill:#070707;}
	.st16{fill:#00FFFF;}
</style>
<g>
	<g>
		<g>
			<g>
				<polygon class="st0" points="37,42.6 28.3,61.2 35.4,56.9 				"/>
			</g>
		</g>
		<g>
			<g>
				<polygon class="st1" points="7.5,10.3 37.1,42.2 29.6,57 17.3,45.8 				"/>
			</g>
		</g>
		<g>
			<g>
				<path d="M1.9,77.6l-0.1-0.2l44.1-21.4l1.1,4.5l-0.1,0L1.9,77.6z M45.8,56.3L3.6,76.8l43.3-16.4L45.8,56.3z"/>
			</g>
		</g>
		<g>
			<g>
				<polygon class="st2" points="54,61.6 31.7,82.9 58.3,66.6 				"/>
			</g>
		</g>
		<g>
			<g>
				<polygon class="st3" points="9.3,36.5 4,2.9 60.2,66 31.7,82.9 58.3,66.6 7.4,10.6 				"/>
			</g>
		</g>
		<g>
			<g>
				<polygon class="st4" points="17.7,47.3 7.4,10.6 9.3,36.5 				"/>
			</g>
		</g>
		<g>
			<g>
				<polygon class="st5" points="58.8,66.9 45,51.6 49.1,72.2 				"/>
			</g>
		</g>
		<g>
			<g>
				<polygon class="st6" points="44.9,51.1 35.4,56.9 37,42.6 				"/>
			</g>
		</g>
		<g>
			<g>
				<polygon class="st7" points="2,77.5 45.9,56.2 47,60.5 				"/>
			</g>
		</g>
		<g>
			<g>
				<polygon class="st8" points="35,47 22.9,27.1 37.1,42.2 				"/>
			</g>
		</g>
		<g>
			<g>
				<polygon class="st9" points="17.2,45.6 33,60.1 28.9,61.5 				"/>
			</g>
		</g>
		<g>
			<g>
				<polygon class="st10" points="37.9,55.3 14.6,50.2 28.3,61.2 				"/>
			</g>
		</g>
		<g>
			<g>
				<polygon class="st11" points="1.9,77.6 48.3,55.2 44.9,51.1 				"/>
			</g>
		</g>
		<g>
			<g>
				<polygon class="st12" points="31.7,82.9 1.9,77.6 47,60.5 49.1,72.2 				"/>
			</g>
		</g>
		<g>
			<g>
				<polygon class="st13" points="1.9,77.6 23.8,81.4 49.1,72.2 				"/>
			</g>
		</g>
		<g>
			<g>
				<polygon class="st14" points="19.4,80.8 48.3,76.7 31.8,82.7 				"/>
			</g>
		</g>
		<g>
			<g>
				<polygon class="st15" points="1.9,77.6 33.3,81.9 31.7,82.9 				"/>
			</g>
		</g>
		<g>
			<g>
				<g>
					<polygon class="st0" points="62.5,59.7 70,40.5 63.2,45.3 					"/>
				</g>
			</g>
			<g>
				<g>
					<polygon class="st1" points="94,90.1 62.4,60.1 68.9,44.8 81.9,55.3 					"/>
				</g>
			</g>
			<g>
				<g>
					<path d="M52.7,46.8l-1.4-4.4l0.1,0l43.9-19.9l0.1,0.1L52.7,46.8z M51.5,42.5l1.3,4l40.9-23.1L51.5,42.5z"/>
				</g>
			</g>
			<g>
				<g>
					<polygon class="st2" points="44.3,41.8 65.2,19.1 39.7,37.1 					"/>
				</g>
			</g>
			<g>
				<g>
					<polygon class="st3" points="90.5,64 98,97.2 37.8,37.8 65.2,19.1 39.7,37.1 94,89.7 					"/>
				</g>
			</g>
			<g>
				<g>
					<polygon class="st4" points="81.4,53.8 94,89.7 90.5,64 					"/>
				</g>
			</g>
			<g>
				<g>
					<polygon class="st5" points="39.2,36.9 54,51.2 48.6,31 					"/>
				</g>
			</g>
			<g>
				<g>
					<polygon class="st6" points="54.1,51.8 63.2,45.3 62.5,59.7 					"/>
				</g>
			</g>
			<g>
				<g>
					<polygon class="st7" points="95.2,22.7 52.8,46.7 51.4,42.5 					"/>
				</g>
			</g>
			<g>
				<g>
					<polygon class="st8" points="64.2,55.2 77.6,74.3 62.4,60.1 					"/>
				</g>
			</g>
			<g>
				<g>
					<polygon class="st9" points="82,55.5 65.4,42 69.3,40.3 					"/>
				</g>
			</g>
			<g>
				<g>
					<polygon class="st10" points="60.8,47 84.3,50.7 70,40.5 					"/>
				</g>
			</g>
			<g>
				<g>
					<polygon class="st11" points="95.3,22.6 50.4,47.8 54.1,51.8 					"/>
				</g>
			</g>
			<g>
				<g>
					<polygon class="st12" points="65.2,19.1 95.3,22.6 51.4,42.5 48.6,31 					"/>
				</g>
			</g>
			<g>
				<g>
					<polygon class="st13" points="95.3,22.6 73.2,20.1 48.6,31 					"/>
				</g>
			</g>
			<g>
				<g>
					<polygon class="st14" points="77.7,20.4 49,26.4 65.1,19.3 					"/>
				</g>
			</g>
			<g>
				<g>
					<polygon class="st15" points="95.3,22.6 63.6,20.2 65.2,19.1 					"/>
				</g>
			</g>
		</g>
	</g>
	<g>
		<g>
			<path class="st16" d="M79.1,52.9c0.3-2.1-1.2-4.1-3.3-4.4c-2.2-0.3-4.2,1.4-4.5,3.4c-0.3,2.1,1.2,4.1,3.3,4.4
				C76.9,56.6,78.8,55.1,79.1,52.9z"/>
		</g>
	</g>
	<g>
		<g>
			<path class="st16" d="M24.1,47.2c0.3-2.1-1.2-4.1-3.3-4.4c-2.2-0.3-4.2,1.4-4.5,3.4c-0.3,2.1,1.2,4.1,3.3,4.4
				C21.8,50.9,23.8,49.3,24.1,47.2z"/>
		</g>
	</g>
	<g>
		<g>
			<line class="st16" x1="59.9" y1="82.4" x2="75.3" y2="52.4"/>
		</g>
		<g>
			
				<rect x="50.7" y="66.4" transform="matrix(0.4561 -0.8899 0.8899 0.4561 -23.2509 96.7999)" class="st16" width="33.7" height="2"/>
		</g>
	</g>
	<g>
		<g>
			
				<rect x="47.3" y="21.9" transform="matrix(0.1039 -0.9946 0.9946 0.1039 -6.5062 91.8641)" class="st16" width="0.8" height="55.4"/>
		</g>
	</g>
	<g>
		<g>
			
				<rect x="12.6" y="32.1" transform="matrix(0.548 -0.8365 0.8365 0.548 -13.9055 39.3382)" class="st16" width="33.8" height="0.8"/>
		</g>
	</g>
	<g>
		<g>
			<path class="st13" d="M44.5,19.1c0.4-3.2-1.8-6.1-5-6.6c-3.3-0.5-6.3,2.2-6.6,5.1c-0.4,3.2,1.8,6.1,5,6.6
				C41.1,24.6,44,22.4,44.5,19.1z"/>
		</g>
	</g>
	<g>
		<g>
			<path class="st13" d="M65.2,83.1c0.4-3.2-1.8-6.1-5-6.6C57,76,54,78.7,53.6,81.6c-0.4,3.2,1.8,6.1,5,6.6
				C61.8,88.6,64.8,86.3,65.2,83.1z"/>
		</g>
	</g>
</g>
</svg>
