<svg width="38" height="74" viewBox="0 0 38 74" fill="none" xmlns="http://www.w3.org/2000/svg">
<path id="Vector" d="M37.6896 65.8095C37.6896 67.2661 37.7161 68.7228 37.6896 70.1794C37.6631 72.1923 36.7626 73.0662 34.7498 73.0662C31.4128 73.0662 30.1945 72.1658 29.8767 68.8552C29.6913 66.9218 28.9762 65.9949 27.0163 65.5181C25.083 65.0414 23.282 63.982 21.4811 63.0816C20.7925 62.7373 20.3157 62.6843 19.7066 63.1875C18.965 63.7966 18.144 64.3528 17.3495 64.8825C15.8134 65.8624 14.3037 65.73 13.006 64.4853C11.5493 63.0816 10.0927 61.6514 8.7155 60.1683C7.44424 58.8176 7.20587 57.202 8.45065 55.8513C10.49 53.6795 10.5164 51.6932 8.92737 49.2566C8.10635 48.0118 7.76205 46.4228 7.31181 44.9396C7.04697 44.1186 6.70267 43.6419 5.80219 43.5624C5.11359 43.5095 4.39851 43.3506 3.70991 43.2181C1.37927 42.7679 0.425827 41.8939 0.266919 39.5633C0.134496 37.4975 0.187465 35.4052 0.372857 33.3659C0.531765 31.5914 1.48521 30.532 3.25967 30.4261C6.04055 30.2937 7.60314 29.1813 8.10635 26.2945C8.37119 24.7319 9.32464 23.2753 10.1192 21.8716C10.5694 21.077 10.5164 20.5474 9.96027 19.8588C9.37761 19.1437 8.84792 18.3756 8.34471 17.6076C7.39127 16.098 7.47072 14.6678 8.68901 13.37C10.0927 11.8604 11.5758 10.3773 13.0854 8.9736C14.3567 7.7818 16.0782 7.46398 17.2965 8.65579C19.6007 10.907 21.7459 10.7216 24.2354 9.07954C25.3743 8.33797 26.8309 7.99367 28.1816 7.62289C29.1351 7.35804 29.6118 6.90781 29.6648 5.90139C29.7178 5.10686 29.9031 4.3388 30.0621 3.54427C30.4063 1.79629 31.2539 0.89581 33.0018 0.60448C33.8493 0.445573 34.7498 0.419088 35.6238 0.472057C36.7362 0.525027 37.6631 1.53144 37.6896 2.98809C37.7691 6.16624 37.7691 9.34439 37.6631 12.5225C37.6101 14.244 36.7891 14.8797 34.8822 15.0386C24.8446 15.992 17.2435 22.7191 15.1248 32.4919C12.5293 44.5159 21.2692 56.7518 33.4786 58.2349C37.4777 58.7116 37.7161 58.9765 37.7161 63.0021C37.6896 63.9556 37.6896 64.8825 37.6896 65.8095ZM35.0411 2.98809C32.6046 3.147 32.6046 3.147 32.2338 5.31873C32.0749 6.21921 31.9425 7.14617 31.81 8.07313C31.6776 8.9736 31.2009 9.50329 30.3004 9.68869C27.1487 10.3508 24.2619 11.5956 21.5605 13.3171C20.7395 13.8468 20.0244 13.7673 19.2563 13.1846C18.2764 12.4431 17.2435 11.7545 16.2636 11.0129C15.6015 10.5097 15.0453 10.4567 14.4097 11.1189C13.2179 12.3636 11.9996 13.5819 10.7548 14.7472C10.0662 15.4094 10.0662 15.9655 10.6224 16.6806C11.364 17.6076 11.9996 18.6405 12.7147 19.5674C13.3768 20.4149 13.4033 21.183 12.8206 22.0835C11.1256 24.7054 9.96027 27.5393 9.29815 30.585C9.08628 31.5914 8.5301 32.0946 7.52369 32.2271C6.33188 32.386 5.16656 32.6243 4.00124 32.7832C3.10077 32.8892 2.67701 33.3129 2.67701 34.2399C2.7035 35.9084 2.7035 37.6034 2.67701 39.2719C2.65053 40.1724 3.02131 40.6491 3.94827 40.7816C5.16656 40.9405 6.38485 41.1788 7.60314 41.3642C8.47713 41.4966 9.05979 41.8939 9.24519 42.8209C9.9073 45.999 11.1521 48.9653 12.9265 51.6932C13.4297 52.4877 13.3768 53.1499 12.8206 53.8649C12.0525 54.8713 11.3375 55.9572 10.5694 56.9636C10.0397 57.6522 10.1192 58.2084 10.7283 58.8176C11.9731 60.0094 13.1914 61.2276 14.3832 62.4724C14.9923 63.1081 15.5485 63.1081 16.2371 62.6048C17.217 61.8633 18.2499 61.1747 19.2299 60.4331C19.9979 59.8504 20.713 59.7445 21.534 60.3007C24.2354 62.0487 27.1223 63.267 30.2739 63.9291C31.1744 64.1145 31.6511 64.6177 31.7835 65.5181C31.916 66.5246 32.0749 67.531 32.2603 68.5109C32.6311 70.4708 32.9489 70.7091 35.0941 70.4972C35.0941 67.7693 35.0411 65.0414 35.1206 62.3135C35.1471 61.3071 34.8293 60.9628 33.7964 60.8569C27.3341 60.1683 21.8783 57.3874 17.7467 52.3553C11.7877 44.9926 10.6754 36.7559 13.88 27.963C17.0316 19.3291 23.5998 14.7472 32.3397 12.9198C33.2402 12.7344 34.1407 12.602 35.0147 12.4431C35.0411 9.23845 35.0411 6.13975 35.0411 2.98809Z" fill="white"/>
</svg>
