<svg width="56" height="69" viewBox="0 0 56 69" fill="none" xmlns="http://www.w3.org/2000/svg">
<path id="Vector" d="M20.7965 42.091C20.7965 43.3623 20.7965 44.3952 20.7965 45.6399C21.2732 45.6399 21.7499 45.6399 22.2002 45.6399C25.908 45.6399 29.6159 45.6399 33.3237 45.6399C34.2242 45.6399 35.1246 45.7194 35.1246 46.8582C35.1511 47.9971 34.2242 48.156 33.3502 48.156C29.7218 48.1825 26.1199 48.156 22.4915 48.156C21.9618 48.156 21.4321 48.156 20.7965 48.156C20.7965 48.8975 20.7965 49.5861 20.7965 50.4601C22.7828 50.4601 24.7957 50.4601 26.8085 50.4601C30.278 50.4601 31.5227 51.7049 31.5492 55.1479C31.5492 56.9488 31.4963 58.7763 31.5757 60.5772C31.6022 61.054 31.92 61.6366 32.2908 61.9544C33.7475 63.1462 34.2771 64.5499 33.7739 66.139C33.2707 67.7016 31.92 68.6815 30.3045 68.708C28.7419 68.708 27.3382 67.7281 26.835 66.2979C26.2523 64.6559 26.782 63.1992 28.2651 61.9809C28.6359 61.6631 29.0067 61.0804 29.0067 60.6037C29.0597 58.5644 28.9802 56.5516 28.9802 54.5123C28.9802 53.5323 28.6359 53.0291 27.603 53.0291C25.4048 53.0556 23.2066 53.0291 20.9819 53.0556C20.7435 53.0556 20.3992 53.0821 20.2403 53.241C19.128 54.4063 17.7773 54.168 16.4001 53.9561C8.13688 52.6319 1.46277 46.355 0.217992 38.1183C-1.23866 28.1336 4.3231 16.9572 17.7508 15.527C18.4659 15.4475 19.2074 15.8978 19.949 16.1361C20.3198 16.2421 20.6641 16.5334 21.0084 16.5599C23.2066 16.6129 25.4048 16.5599 27.6295 16.5864C28.5565 16.5864 29.0067 16.1626 29.0067 15.2357C29.0067 13.1169 29.1127 10.9981 29.0067 8.87937C28.9802 8.34968 28.3976 7.7935 27.9473 7.39623C26.7026 6.2574 26.2788 4.74778 26.8879 3.21167C27.4706 1.75502 28.9802 0.828061 30.5693 0.934C32.1319 1.03994 33.4826 2.17877 33.8534 3.76785C34.1977 5.30395 33.6945 6.6017 32.4497 7.50217C31.7081 8.03186 31.4963 8.66749 31.5227 9.515C31.5757 11.3689 31.5492 13.2228 31.5227 15.0768C31.4963 17.7517 30.0926 19.1289 27.4176 19.1819C25.2459 19.2083 23.1007 19.1819 20.823 19.1819C20.823 19.9234 20.823 20.5855 20.823 21.486C21.3262 21.486 21.8294 21.486 22.3326 21.486C26.0404 21.5125 29.7483 21.539 33.4561 21.5655C34.3301 21.5655 35.1246 21.6714 35.1246 22.7838C35.0982 23.9226 34.2507 24.0285 33.3237 24.0285C29.6688 24.0021 25.9875 24.0285 22.3326 24.0285C21.8559 24.0285 21.3792 24.0285 20.823 24.0285C20.823 25.2203 20.823 26.3592 20.823 27.604C21.5646 27.604 22.2796 27.604 22.9682 27.604C28.3181 27.604 33.6415 27.604 38.9914 27.604C40.8983 27.604 41.1366 27.3656 41.1366 25.4852C41.1366 24.6377 41.1102 23.8167 41.1366 22.9692C41.2161 21.4595 41.1366 20.1883 39.68 19.0759C38.1704 17.8841 38.4617 15.3151 39.9184 14.0174C41.4545 12.6667 43.7851 12.7991 45.1358 14.3352C46.4336 15.8183 46.3806 18.2549 44.7915 19.4202C43.7586 20.1618 43.5732 20.9828 43.6262 22.0952C43.6792 23.3399 43.6527 24.5582 43.6262 25.803C43.5997 28.7428 42.2755 30.0935 39.3092 30.12C33.615 30.1465 27.9208 30.12 22.2267 30.12C21.7499 30.12 21.2732 30.12 20.7435 30.12C20.7435 31.2853 20.7435 32.3447 20.7435 33.616C21.1938 33.616 21.644 33.616 22.1207 33.616C30.5163 33.616 38.8855 33.616 47.2811 33.6424C48.1286 33.6424 48.7112 33.457 49.2409 32.689C50.4062 30.9675 52.9488 30.7556 54.4849 32.1593C56.1004 33.616 56.1534 36.0525 54.5908 37.5621C53.1077 39.0188 50.5651 38.9393 49.3204 37.2443C48.6847 36.3439 47.9961 36.1585 46.9897 36.1585C38.7795 36.185 30.5693 36.185 22.3591 36.185C21.8824 36.185 21.4056 36.185 20.823 36.185C20.823 37.3238 20.823 38.4097 20.823 39.6809C21.2732 39.6809 21.7235 39.6809 22.2002 39.6809C27.7619 39.6809 33.3237 39.6544 38.8855 39.7074C39.9448 39.7074 41.1102 39.9458 42.0636 40.396C43.3349 41.0051 43.5997 42.3559 43.6527 43.6801C43.6792 45.1367 43.7056 46.5934 43.6527 48.05C43.6262 49.0035 43.8646 49.6656 44.6856 50.2483C46.1157 51.2812 46.4336 53.2145 45.639 54.7506C44.8445 56.2603 43.017 57.0283 41.3485 56.5516C39.68 56.0484 38.4617 54.4593 38.806 52.7113C38.9914 51.7579 39.6535 50.7779 40.3421 50.0629C40.8718 49.5067 41.1631 49.03 41.1366 48.2619C41.0837 46.7258 41.1102 45.1632 41.1366 43.6271C41.1366 42.7002 40.7129 42.1705 39.8124 42.1705C33.5091 42.0645 27.2058 42.091 20.7965 42.091ZM18.0686 18.0695C9.9908 18.3608 2.31027 25.4852 2.46918 35.6023C2.6016 43.6536 10.5205 51.7314 18.0686 51.4401C18.0686 40.3695 18.0686 29.2725 18.0686 18.0695ZM42.4079 18.2814C42.9376 17.5133 43.4938 17.0631 43.4673 16.6129C43.4673 16.2421 42.8052 15.8713 42.4344 15.527C42.0636 15.9243 41.4545 16.2686 41.375 16.7188C41.2955 17.0631 41.8782 17.5133 42.4079 18.2814ZM53.7433 34.8872C53.0017 34.3045 52.5515 33.7219 52.2072 33.7749C51.757 33.8278 51.3597 34.4105 50.9624 34.7548C51.3067 35.1256 51.6245 35.7877 51.9953 35.8142C52.4191 35.8407 52.9223 35.3374 53.7433 34.8872ZM44.0764 52.8437C43.2289 52.3405 42.7522 51.8373 42.302 51.8638C41.9312 51.8903 41.3485 52.5789 41.375 52.9762C41.4015 53.347 42.0371 54.0091 42.3814 54.0091C42.8317 53.9826 43.2819 53.4264 44.0764 52.8437ZM30.3309 2.92034C29.7748 3.68839 29.1921 4.13863 29.2451 4.48293C29.3245 4.93317 29.9337 5.27747 30.3045 5.67474C30.6752 5.33044 31.3374 4.98614 31.3374 4.61535C31.3638 4.16512 30.8341 3.71488 30.3309 2.92034ZM31.867 65.0796C31.2049 64.5499 30.7547 63.9408 30.4104 63.9673C29.9602 64.0202 29.5894 64.6029 29.1656 64.9737C29.5364 65.3709 29.8807 65.9801 30.3309 66.0595C30.6752 66.139 31.152 65.5563 31.867 65.0796Z" fill="white"/>
</svg>
